<svg width="14" height="18" viewBox="0 0 14 18" fill="none" xmlns="http://www.w3.org/2000/svg">
<path d="M12.8804 5.48438C12.8804 2.89954 10.7719 0.796875 8.17992 0.796875H1.12915V17.2031H8.17992C10.7719 17.2031 12.8804 15.1005 12.8804 12.5156C12.8804 11.1167 12.262 9.85968 11.2839 9C12.262 8.14032 12.8804 6.8833 12.8804 5.48438ZM10.5302 12.5156C10.5302 13.808 9.47593 14.8594 8.17992 14.8594H3.47941V10.1719H8.17992C9.47593 10.1719 10.5302 11.2232 10.5302 12.5156ZM3.47941 7.82812V3.14062H8.17992C9.47593 3.14062 10.5302 4.19196 10.5302 5.48438C10.5302 6.77679 9.47593 7.82812 8.17992 7.82812H3.47941Z" fill="#070707" stroke="#070707" stroke-width="0.5"/>
</svg>
